# xmcd
#
# Track frame offsets:
#	187
#	11830
#	28087
#	45402
#	60617
#	76647
#	89307
#	104177
#	122495
#	135240
#
# Disc length: 2020 seconds
#
# Revision: 7
# Processed by: cddbd v1.5.2PL0 Copyright (c) Steve Scherf et al.
# Submitted via: EZCDAudioConverter 6.0.2.1
#
DISCID=7507e20a
DTITLE=Larry Stewart - Down The Road
DYEAR=1993
DGENRE=Country
TTITLE0=Alright Already
TTITLE1=When I Close My Eyes
TTITLE2=I'll Cry Tomorrow
TTITLE3=She Needs Me
TTITLE4=We Can Love
TTITLE5=I Came Straight To You
TTITLE6=When You Come Back To Me
TTITLE7=The Boy Down The Road
TTITLE8=The Night Is Young
TTITLE9=Brittany
EXTD=
EXTT0=
EXTT1=
EXTT2=
EXTT3=
EXTT4=
EXTT5=
EXTT6=
EXTT7=
EXTT8=
EXTT9=
PLAYORDER=
